<svg width="646" height="96" viewBox="0 0 646 96" fill="none" xmlns="http://www.w3.org/2000/svg">
  <g clip-path="url(#clip0_1064_606)">
    <path d="M108.53 75.6899L90.81 94.6899C90.4267 95.1026 89.9626 95.432 89.4464 95.6573C88.9303 95.8827 88.3732 95.9994 87.81 95.9999H3.81C3.40937 95.9999 3.01749 95.8917 2.68235 95.6849C2.34722 95.4781 2.08338 95.1806 1.92313 94.8283C1.76288 94.4759 1.71318 94.0842 1.78012 93.7033C1.84706 93.3225 2.02772 92.9691 2.30001 92.6899L20 73.6899C20.3833 73.2772 20.8474 72.9478 21.3636 72.7225C21.8797 72.4971 22.4368 72.3804 23 72.3799H107C107.401 72.3799 107.792 72.4881 108.128 72.6949C108.463 72.9017 108.727 73.1992 108.887 73.5516C109.047 73.9039 109.097 74.2956 109.03 74.6765C108.963 75.0573 108.782 75.4107 108.51 75.6899H108.53Z" fill="url(#paint0_linear_1064_606)"/>
    <path d="M108.53 46.6899L90.81 65.6899C90.4267 66.1026 89.9626 66.432 89.4464 66.6573C88.9303 66.8827 88.3732 66.9994 87.81 66.9999H3.81C3.40937 66.9999 3.01749 66.8917 2.68235 66.6849C2.34722 66.4781 2.08338 66.1806 1.92313 65.8283C1.76288 65.4759 1.71318 65.0842 1.78012 64.7033C1.84706 64.3225 2.02772 63.9691 2.30001 63.6899L20 44.6899C20.3833 44.2772 20.8474 43.9478 21.3636 43.7225C21.8797 43.4971 22.4368 43.3804 23 43.3799H107C107.401 43.3799 107.792 43.4881 108.128 43.6949C108.463 43.9017 108.727 44.1992 108.887 44.5516C109.047 44.9039 109.097 45.2956 109.03 45.6765C108.963 46.0573 108.782 46.4107 108.51 46.6899H108.53Z" fill="url(#paint1_linear_1064_606)"/>
    <path d="M2.30001 17.6899L20 36.6899C20.3833 37.1026 20.8474 37.432 21.3636 37.6573C21.8797 37.8827 22.4368 37.9994 23 37.9999H107C107.401 37.9999 107.792 37.8917 108.128 37.6849C108.463 37.4781 108.727 37.1806 108.887 36.8283C109.047 36.4759 109.097 36.0842 109.03 35.7033C108.963 35.3225 108.782 34.9691 108.51 34.6899L90.81 15.6899C90.4267 15.2772 89.9626 14.9478 89.4464 14.7225C88.9303 14.4971 88.3732 14.3804 87.81 14.3799H3.81C3.40937 14.3799 3.01749 14.4881 2.68235 14.6949C2.34722 14.9017 2.08338 15.1992 1.92313 15.5516C1.76288 15.9039 1.71318 16.2956 1.78012 16.6765C1.84706 17.0573 2.02772 17.4107 2.30001 17.6899Z" fill="url(#paint2_linear_1064_606)"/>
  </g>
  <defs>
    <linearGradient id="paint0_linear_1064_606" x1="10.81" y1="89.7699" x2="98.89" y2="76.8499" gradientUnits="userSpaceOnUse">
      <stop stop-color="#00FFA3"/>
      <stop offset="1" stop-color="#DC1FFF"/>
    </linearGradient>
    <linearGradient id="paint1_linear_1064_606" x1="10.81" y1="60.7699" x2="98.89" y2="47.8499" gradientUnits="userSpaceOnUse">
      <stop stop-color="#00FFA3"/>
      <stop offset="1" stop-color="#DC1FFF"/>
    </linearGradient>
    <linearGradient id="paint2_linear_1064_606" x1="10.81" y1="31.7699" x2="98.89" y2="18.8499" gradientUnits="userSpaceOnUse">
      <stop stop-color="#00FFA3"/>
      <stop offset="1" stop-color="#DC1FFF"/>
    </linearGradient>
    <clipPath id="clip0_1064_606">
      <rect width="646" height="96" fill="white"/>
    </clipPath>
  </defs>
</svg>